<?xml version="1.0" encoding="UTF-8"?>
<svg id="_레이어_1" data-name="레이어_1" xmlns="http://www.w3.org/2000/svg" version="1.1" viewBox="0 0 420 110">
  <!-- Generator: Adobe Illustrator 29.1.0, SVG Export Plug-In . SVG Version: 2.1.0 Build 142)  -->
  <defs>
    <style>
      .st0, .st1, .st2 {
        fill: #040000;
      }

      .st0, .st1, .st3 {
        font-size: 16px;
      }

      .st0, .st3 {
        font-family: WorkSans-Bold, 'Work Sans';
        font-weight: 700;
      }

      .st1 {
        font-family: WorkSans-Regular, 'Work Sans';
      }

      .st4 {
        fill: #0f8b43;
      }

      .st5 {
        fill: #c8c9ca;
      }

      .st3 {
        fill: #989898;
      }

      .st6 {
        fill: #fff;
      }

      .st7 {
        fill: none;
        stroke: #040000;
        stroke-miterlimit: 10;
        stroke-width: .5px;
      }
    </style>
  </defs>
  <rect class="st4" x="3674.64" y="-270" width="467.36" height="148.64"/>
  <rect class="st6" x="3674.64" y="-83.29" width="467.36" height="37.91"/>
  <rect class="st5" x="3674.64" y="-121.36" width="467.36" height="37.91"/>
  <rect class="st2" x="3674.64" y="-45.32" width="467.36" height="40.32"/>
  <path class="st4" d="M-176.03,507.72v173.01h-50.07l-53.74-93.58-13.11-25.69h-.26l1.05,31.98v87.29h-39.84v-173.01h50.07l53.74,93.58,13.11,25.69h.26l-1.05-31.98v-87.29h39.84Z"/>
  <path class="st4" d="M-3.94,542.58h-89.39v36.7h.01v34.86h-.01v66.58h-45.09v-173.01H-3.94v34.86Z"/>
  <path class="st4" d="M171.08,507.72v34.86h-56.36v138.14h-45.09v-138.14H13.02v-34.86h158.06Z"/>
  <path class="st2" d="M215.46,534.45c-9.09,0-15.69-1.7-19.79-5.11-4.11-3.4-6.16-8.78-6.16-16.12s2.05-12.97,6.16-16.38c4.1-3.41,10.7-5.11,19.79-5.11s15.47,1.7,19.66,5.11,6.29,8.87,6.29,16.38-2.1,12.71-6.29,16.12c-4.19,3.41-10.75,5.11-19.66,5.11ZM237.75,549.66v131.07h-44.56v-131.07h44.56Z"/>
  <path class="st2" d="M315.94,683.34c-10.84,0-20.32-2.66-28.44-8-8.13-5.32-14.42-13.06-18.87-23.2-4.46-10.13-6.69-22.28-6.69-36.44s2.32-27.09,6.95-37.23c4.63-10.13,11.1-17.91,19.4-23.33,8.3-5.41,17.86-8.12,28.7-8.12,11.88,0,21.45,3.63,28.7,10.88,7.25,7.26,11.93,16.47,14.02,27.66l-4.19,5.51v-96.99h44.56v186.64h-39.84l-2.88-44.56,5.24,3.93c-1.05,8.74-3.72,16.34-8,22.8-4.28,6.47-9.7,11.49-16.25,15.07-6.55,3.58-14.02,5.37-22.41,5.37ZM331.4,650.58c5.06,0,9.39-1.35,12.97-4.06,3.58-2.7,6.33-6.77,8.26-12.19,1.92-5.41,2.88-12.06,2.88-19.92,0-7.34-.92-13.59-2.75-18.74-1.83-5.15-4.54-9.09-8.13-11.8-3.58-2.71-7.91-4.06-12.97-4.06-7.69,0-13.76,2.84-18.22,8.52-4.45,5.68-6.69,14.64-6.69,26.87s2.18,21.19,6.55,26.87c4.37,5.68,10.4,8.52,18.09,8.52Z"/>
  <g>
    <path class="st5" d="M-305.66,751.66c5.42,0,10.11,1.16,14.06,3.47,3.95,2.31,7,5.62,9.15,9.91,2.14,4.29,3.22,9.43,3.22,15.41s-1.07,11.12-3.22,15.41c-2.15,4.29-5.2,7.59-9.15,9.91-3.95,2.31-8.64,3.47-14.06,3.47s-10.02-1.16-13.97-3.47c-3.95-2.31-7-5.62-9.15-9.91-2.15-4.29-3.22-9.43-3.22-15.41s1.07-11.12,3.22-15.41c2.15-4.29,5.19-7.59,9.15-9.91,3.95-2.31,8.61-3.47,13.97-3.47ZM-305.66,759.54c-3.5,0-6.51.82-9.02,2.46-2.51,1.64-4.45,4.01-5.8,7.11-1.36,3.11-2.03,6.89-2.03,11.35s.68,8.17,2.03,11.31c1.35,3.13,3.29,5.52,5.8,7.16,2.51,1.64,5.52,2.46,9.02,2.46s6.59-.82,9.1-2.46c2.51-1.64,4.45-4.02,5.8-7.16,1.35-3.13,2.03-6.9,2.03-11.31s-.68-8.24-2.03-11.35c-1.35-3.1-3.29-5.48-5.8-7.11-2.51-1.64-5.55-2.46-9.1-2.46Z"/>
    <path class="st5" d="M-245.13,752.51c4.01,0,7.47.71,10.37,2.12,2.91,1.41,5.18,3.42,6.82,6.01,1.64,2.6,2.46,5.73,2.46,9.4s-.82,6.73-2.46,9.36-3.91,4.65-6.82,6.05c-2.91,1.41-6.37,2.12-10.37,2.12h-12.45v20.83h-9.06v-55.9h21.51ZM-246.57,779.78c4.01,0,6.96-.83,8.85-2.5,1.89-1.66,2.84-4.08,2.84-7.24s-.95-5.66-2.84-7.33c-1.89-1.66-4.84-2.5-8.85-2.5h-11.01v19.56h11.01Z"/>
    <path class="st5" d="M-215.06,808.4v-55.9h40.48v7.79h-31.42v16.09h24.56v7.62h-24.56v16.6h32.61v7.79h-41.67Z"/>
    <path class="st5" d="M-117.03,752.51v55.9h-10.75l-21.6-35.23-5.42-9.91h-.08l.34,9.06v36.08h-8.3v-55.9h10.67l21.51,35.15,5.5,10.08h.08l-.34-9.15v-36.08h8.38Z"/>
    <path class="st5" d="M-27.17,752.51v55.9h-10.75l-21.6-35.23-5.42-9.91h-.08l.34,9.06v36.08h-8.3v-55.9h10.67l21.51,35.15,5.5,10.08h.08l-.34-9.15v-36.08h8.38Z"/>
    <path class="st5" d="M28.6,760.3H-2.74v16.26h24.56v7.79H-2.74v24.05h-9.06v-55.9H28.6v7.79Z"/>
    <path class="st5" d="M83.3,752.51v7.79h-19.14v48.1h-9.06v-48.1h-19.14v-7.79h47.34Z"/>
    <path class="st5" d="M143.18,752.51c4.01,0,7.47.71,10.37,2.12,2.91,1.41,5.18,3.42,6.82,6.01,1.64,2.6,2.46,5.73,2.46,9.4s-.82,6.73-2.46,9.36-3.91,4.65-6.82,6.05c-2.91,1.41-6.37,2.12-10.37,2.12h-12.45v20.83h-9.06v-55.9h21.51ZM141.74,779.78c4.01,0,6.96-.83,8.85-2.5,1.89-1.66,2.84-4.08,2.84-7.24s-.95-5.66-2.84-7.33c-1.89-1.66-4.84-2.5-8.85-2.5h-11.01v19.56h11.01Z"/>
    <path class="st5" d="M182.31,800.61h30.83v7.79h-39.89v-55.9h9.06v48.1Z"/>
    <path class="st5" d="M272.83,808.4h-9.57l-5.34-14.65h-23.46l-5.34,14.65h-9.32l21.09-55.9h10.84l21.09,55.9ZM237.01,786.38h18.38l-9.15-26.09-9.23,26.09Z"/>
    <path class="st5" d="M317.71,752.51v7.79h-19.14v48.1h-9.06v-48.1h-19.14v-7.79h47.34Z"/>
    <path class="st5" d="M368,760.3h-31.34v16.26h24.56v7.79h-24.56v24.05h-9.06v-55.9h40.4v7.79Z"/>
    <path class="st5" d="M400.34,751.66c5.42,0,10.11,1.16,14.06,3.47,3.95,2.31,7,5.62,9.15,9.91,2.14,4.29,3.22,9.43,3.22,15.41s-1.07,11.12-3.22,15.41c-2.15,4.29-5.2,7.59-9.15,9.91-3.95,2.31-8.64,3.47-14.06,3.47s-10.02-1.16-13.97-3.47c-3.95-2.31-7-5.62-9.15-9.91-2.15-4.29-3.22-9.43-3.22-15.41s1.07-11.12,3.22-15.41c2.15-4.29,5.19-7.59,9.15-9.91,3.95-2.31,8.61-3.47,13.97-3.47ZM400.34,759.54c-3.5,0-6.51.82-9.02,2.46-2.51,1.64-4.45,4.01-5.8,7.11-1.36,3.11-2.03,6.89-2.03,11.35s.68,8.17,2.03,11.31c1.35,3.13,3.29,5.52,5.8,7.16,2.51,1.64,5.52,2.46,9.02,2.46s6.59-.82,9.1-2.46c2.51-1.64,4.45-4.02,5.8-7.16,1.35-3.13,2.03-6.9,2.03-11.31s-.68-8.24-2.03-11.35c-1.35-3.1-3.29-5.48-5.8-7.11-2.51-1.64-5.55-2.46-9.1-2.46Z"/>
    <path class="st5" d="M462.14,752.51c5.98,0,10.74,1.5,14.27,4.49,3.53,2.99,5.29,7.03,5.29,12.11s-1.77,9.3-5.29,12.15c-3.53,2.85-8.29,4.28-14.27,4.28l-.85.51h-12.96v22.36h-8.98v-55.9h22.78ZM461.46,778.51c3.67,0,6.39-.75,8.17-2.24,1.78-1.49,2.67-3.8,2.67-6.9s-.89-5.34-2.67-6.86c-1.78-1.52-4.5-2.29-8.17-2.29h-13.13v18.29h13.13ZM466.8,780.37l18.21,28.03h-10.42l-15.58-24.48,7.79-3.56Z"/>
    <path class="st5" d="M552.23,752.51v55.9h-8.38v-32.35l.68-15.41h-.08l-17.02,47.76h-7.54l-17.02-47.76h-.09l.68,15.41v32.35h-8.39v-55.9h13.47l11.26,32.35,3.9,13.3h.17l3.98-13.3,11.18-32.35h13.21Z"/>
    <path class="st5" d="M636.75,760.3h-31.34v16.26h24.56v7.79h-24.56v24.05h-9.06v-55.9h40.4v7.79Z"/>
    <path class="st5" d="M669.1,751.66c5.42,0,10.11,1.16,14.06,3.47,3.95,2.31,7,5.62,9.15,9.91,2.14,4.29,3.22,9.43,3.22,15.41s-1.07,11.12-3.22,15.41c-2.15,4.29-5.2,7.59-9.15,9.91-3.95,2.31-8.64,3.47-14.06,3.47s-10.02-1.16-13.97-3.47c-3.95-2.31-7-5.62-9.15-9.91-2.15-4.29-3.22-9.43-3.22-15.41s1.07-11.12,3.22-15.41c2.15-4.29,5.19-7.59,9.15-9.91,3.95-2.31,8.61-3.47,13.97-3.47ZM669.1,759.54c-3.5,0-6.51.82-9.02,2.46-2.51,1.64-4.45,4.01-5.8,7.11-1.36,3.11-2.03,6.89-2.03,11.35s.68,8.17,2.03,11.31c1.35,3.13,3.29,5.52,5.8,7.16,2.51,1.64,5.52,2.46,9.02,2.46s6.59-.82,9.1-2.46c2.51-1.64,4.45-4.02,5.8-7.16,1.35-3.13,2.03-6.9,2.03-11.31s-.68-8.24-2.03-11.35c-1.35-3.1-3.29-5.48-5.8-7.11-2.51-1.64-5.55-2.46-9.1-2.46Z"/>
    <path class="st5" d="M730.89,752.51c5.98,0,10.74,1.5,14.27,4.49,3.53,2.99,5.29,7.03,5.29,12.11s-1.77,9.3-5.29,12.15c-3.53,2.85-8.29,4.28-14.27,4.28l-.85.51h-12.96v22.36h-8.98v-55.9h22.78ZM730.22,778.51c3.67,0,6.39-.75,8.17-2.24,1.78-1.49,2.67-3.8,2.67-6.9s-.89-5.34-2.67-6.86c-1.78-1.52-4.5-2.29-8.17-2.29h-13.13v18.29h13.13ZM735.55,780.37l18.21,28.03h-10.42l-15.58-24.48,7.79-3.56Z"/>
    <path class="st5" d="M838.96,808.4h-9.57l-5.34-14.65h-23.46l-5.34,14.65h-9.32l21.09-55.9h10.84l21.09,55.9ZM803.13,786.38h18.38l-9.15-26.09-9.23,26.09Z"/>
    <path class="st5" d="M857.43,800.61h30.83v7.79h-39.89v-55.9h9.06v48.1Z"/>
    <path class="st5" d="M907.17,800.61h30.83v7.79h-39.89v-55.9h9.06v48.1Z"/>
  </g>
  <path class="st4" d="M-44.48,622.37c-9.09,0-15.69-1.7-19.79-5.11-4.11-3.4-6.16-8.78-6.16-16.12s2.05-12.97,6.16-16.38c4.1-3.41,10.7-5.11,19.79-5.11s15.47,1.7,19.66,5.11c4.19,3.41,6.29,8.87,6.29,16.38s-2.1,12.71-6.29,16.12c-4.19,3.41-10.75,5.11-19.66,5.11Z"/>
  <g>
    <g>
      <path class="st2" d="M543.74,680.72c-11.64,0-19.75-3.5-24.31-10.5-4.56-7.01-5.49-16.16-2.78-27.48l34.43-148.63h20.26l-34.69,149.38c-1.69,6.92-1.19,11.91,1.51,14.94,2.7,3.04,7.34,4.56,13.92,4.56,2.53,0,4.73-.08,6.58-.25s3.63-.42,5.32-.76l-5.06,16.2c-2.7,1.01-5.15,1.68-7.34,2.02-2.19.33-4.81.5-7.85.5Z"/>
      <path class="st2" d="M636.93,552.36l-29.37,126.6h-20.25l29.37-126.6h20.25ZM634.65,528.05c-4.05,0-7.34-1.22-9.87-3.67-2.53-2.44-3.79-5.61-3.79-9.5,0-5.23,1.56-9.4,4.68-12.53,3.12-3.12,6.88-4.68,11.27-4.68,4.06,0,7.35,1.23,9.87,3.67,2.53,2.45,3.8,5.62,3.8,9.5,0,5.23-1.56,9.41-4.68,12.53-3.13,3.13-6.88,4.68-11.27,4.68Z"/>
      <path class="st2" d="M651.83,678.95l29.37-126.6h17.73l-4.81,28.36-2.53-1.27c3.38-9.96,9.53-17.39,18.48-22.28,8.95-4.9,18.57-7.35,28.87-7.35s18.06,2.12,24.81,6.34c6.75,4.22,11.52,10.25,14.31,18.1,2.78,7.85,2.91,17.35.38,28.49l-17.73,76.21h-20.25l17.72-76.46c2.53-10.97,1.48-19.53-3.16-25.7-4.64-6.16-11.95-9.24-21.91-9.24-7.77,0-14.64,1.73-20.63,5.19-6,3.46-11.06,8.48-15.19,15.07-4.14,6.58-7.39,14.77-9.75,24.56l-15.45,66.59h-20.25Z"/>
      <path class="st2" d="M865.08,494.12l-42.79,184.83h-20.25l42.79-184.83h20.25ZM938,552.36l-66.08,54.95-4.3,2.78-49.12,41.02,3.79-25.83,87.35-72.92h28.36ZM875.71,596.66l35.95,82.29h-22.02l-30.39-71.4,16.46-10.89Z"/>
    </g>
    <path class="st2" d="M465.31,679.21c-4.05,0-7.34-1.22-9.87-3.67-2.53-2.44-3.79-5.61-3.79-9.5,0-5.23,1.56-9.4,4.68-12.53,3.12-3.12,6.88-4.68,11.27-4.68,4.06,0,7.35,1.23,9.87,3.67,2.53,2.45,3.8,5.62,3.8,9.5,0,5.23-1.56,9.41-4.68,12.53-3.13,3.13-6.88,4.68-11.27,4.68Z"/>
  </g>
  <path class="st6" d="M57.12,10.04v54.49h-15.77l-16.92-29.47-4.13-8.09h-.08l.33,10.07v27.49H8V10.04h15.77l16.92,29.47,4.13,8.09h.08l-.33-10.07V10.04h12.55Z"/>
  <path class="st6" d="M111.33,21.02h-28.15v11.56h0v10.98h0v20.97h-14.2V10.04h42.35v10.98Z"/>
  <path class="st6" d="M166.45,10.04v10.98h-17.75v43.51h-14.2V21.02h-17.83v-10.98h49.78Z"/>
  <path class="st2" d="M186.43,18.46c-2.86,0-4.94-.54-6.23-1.61-1.29-1.07-1.94-2.77-1.94-5.08s.65-4.09,1.94-5.16c1.29-1.07,3.37-1.61,6.23-1.61s4.87.54,6.19,1.61,1.98,2.79,1.98,5.16-.66,4-1.98,5.08c-1.32,1.07-3.38,1.61-6.19,1.61ZM193.45,23.25v41.28h-14.04V23.25h14.04Z"/>
  <path class="st2" d="M218.07,65.35c-3.41,0-6.4-.84-8.96-2.52-2.56-1.68-4.54-4.11-5.94-7.31-1.4-3.19-2.11-7.02-2.11-11.48s.73-8.53,2.19-11.72c1.46-3.19,3.5-5.64,6.11-7.35,2.61-1.71,5.63-2.56,9.04-2.56,3.74,0,6.76,1.14,9.04,3.43,2.28,2.29,3.76,5.19,4.42,8.71l-1.32,1.73V5.74h14.04v58.78h-12.55l-.91-14.04,1.65,1.24c-.33,2.75-1.17,5.15-2.52,7.18-1.35,2.04-3.05,3.62-5.12,4.75s-4.42,1.69-7.06,1.69ZM222.95,55.03c1.6,0,2.96-.42,4.09-1.28,1.13-.85,1.99-2.13,2.6-3.84.61-1.71.91-3.8.91-6.27,0-2.31-.29-4.28-.87-5.9s-1.43-2.86-2.56-3.72-2.49-1.28-4.09-1.28c-2.42,0-4.33.89-5.74,2.68-1.4,1.79-2.11,4.61-2.11,8.46s.69,6.67,2.06,8.46c1.38,1.79,3.27,2.68,5.7,2.68Z"/>
  <g>
    <path class="st5" d="M16.42,86.6c1.73,0,3.23.37,4.49,1.11,1.26.74,2.24,1.8,2.92,3.17.69,1.37,1.03,3.01,1.03,4.93s-.34,3.56-1.03,4.93c-.69,1.37-1.66,2.43-2.92,3.17-1.26.74-2.76,1.11-4.49,1.11s-3.2-.37-4.47-1.11c-1.26-.74-2.24-1.8-2.92-3.17-.69-1.37-1.03-3.01-1.03-4.93s.34-3.56,1.03-4.93c.69-1.37,1.66-2.43,2.92-3.17,1.26-.74,2.75-1.11,4.47-1.11ZM16.42,89.11c-1.12,0-2.08.26-2.88.79-.8.52-1.42,1.28-1.85,2.27-.43.99-.65,2.2-.65,3.63s.22,2.61.65,3.61c.43,1,1.05,1.76,1.85,2.29.8.52,1.76.78,2.88.78s2.11-.26,2.91-.78c.8-.52,1.42-1.29,1.85-2.29.43-1,.65-2.21.65-3.61s-.22-2.64-.65-3.63c-.43-.99-1.05-1.75-1.85-2.27-.8-.52-1.77-.79-2.91-.79Z"/>
    <path class="st5" d="M35.77,86.87c1.28,0,2.39.23,3.32.68.93.45,1.66,1.09,2.18,1.92.52.83.79,1.83.79,3.01s-.26,2.15-.79,2.99-1.25,1.48-2.18,1.94c-.93.45-2.04.68-3.32.68h-3.98v6.66h-2.9v-17.87h6.88ZM35.31,95.59c1.28,0,2.22-.27,2.83-.8.6-.53.91-1.3.91-2.31s-.3-1.81-.91-2.34c-.6-.53-1.55-.8-2.83-.8h-3.52v6.25h3.52Z"/>
    <path class="st5" d="M45.38,104.74v-17.87h12.94v2.49h-10.04v5.14h7.85v2.44h-7.85v5.31h10.42v2.49h-13.32Z"/>
    <path class="st5" d="M76.72,86.87v17.87h-3.44l-6.9-11.26-1.73-3.17h-.03l.11,2.9v11.53h-2.65v-17.87h3.41l6.88,11.24,1.76,3.22h.03l-.11-2.92v-11.53h2.68Z"/>
    <path class="st5" d="M105.45,86.87v17.87h-3.44l-6.9-11.26-1.73-3.17h-.03l.11,2.9v11.53h-2.65v-17.87h3.41l6.88,11.24,1.76,3.22h.03l-.11-2.92v-11.53h2.68Z"/>
    <path class="st5" d="M123.28,89.36h-10.02v5.2h7.85v2.49h-7.85v7.69h-2.9v-17.87h12.91v2.49Z"/>
    <path class="st5" d="M140.77,86.87v2.49h-6.12v15.38h-2.9v-15.38h-6.12v-2.49h15.13Z"/>
    <path class="st5" d="M159.91,86.87c1.28,0,2.39.23,3.32.68.93.45,1.66,1.09,2.18,1.92.52.83.79,1.83.79,3.01s-.26,2.15-.79,2.99-1.25,1.48-2.18,1.94c-.93.45-2.04.68-3.32.68h-3.98v6.66h-2.9v-17.87h6.88ZM159.45,95.59c1.28,0,2.22-.27,2.83-.8.6-.53.91-1.3.91-2.31s-.3-1.81-.91-2.34c-.6-.53-1.55-.8-2.83-.8h-3.52v6.25h3.52Z"/>
    <path class="st5" d="M172.42,102.25h9.85v2.49h-12.75v-17.87h2.9v15.38Z"/>
    <path class="st5" d="M201.36,104.74h-3.06l-1.71-4.68h-7.5l-1.71,4.68h-2.98l6.74-17.87h3.47l6.74,17.87ZM189.9,97.7h5.88l-2.92-8.34-2.95,8.34Z"/>
    <path class="st5" d="M215.7,86.87v2.49h-6.12v15.38h-2.9v-15.38h-6.12v-2.49h15.13Z"/>
    <path class="st5" d="M231.78,89.36h-10.02v5.2h7.85v2.49h-7.85v7.69h-2.9v-17.87h12.91v2.49Z"/>
    <path class="st5" d="M242.12,86.6c1.73,0,3.23.37,4.49,1.11,1.26.74,2.24,1.8,2.92,3.17.69,1.37,1.03,3.01,1.03,4.93s-.34,3.56-1.03,4.93c-.69,1.37-1.66,2.43-2.92,3.17-1.26.74-2.76,1.11-4.49,1.11s-3.2-.37-4.47-1.11c-1.26-.74-2.24-1.8-2.92-3.17-.69-1.37-1.03-3.01-1.03-4.93s.34-3.56,1.03-4.93c.69-1.37,1.66-2.43,2.92-3.17,1.26-.74,2.75-1.11,4.47-1.11ZM242.12,89.11c-1.12,0-2.08.26-2.88.79-.8.52-1.42,1.28-1.85,2.27-.43.99-.65,2.2-.65,3.63s.22,2.61.65,3.61c.43,1,1.05,1.76,1.85,2.29.8.52,1.76.78,2.88.78s2.11-.26,2.91-.78c.8-.52,1.42-1.29,1.85-2.29.43-1,.65-2.21.65-3.61s-.22-2.64-.65-3.63c-.43-.99-1.05-1.75-1.85-2.27-.8-.52-1.77-.79-2.91-.79Z"/>
    <path class="st5" d="M261.88,86.87c1.91,0,3.43.48,4.56,1.44,1.13.96,1.69,2.25,1.69,3.87s-.56,2.97-1.69,3.88c-1.13.91-2.65,1.37-4.56,1.37l-.27.16h-4.14v7.15h-2.87v-17.87h7.28ZM261.66,95.18c1.17,0,2.04-.24,2.61-.72.57-.48.85-1.21.85-2.21s-.28-1.71-.85-2.19c-.57-.49-1.44-.73-2.61-.73h-4.2v5.85h4.2ZM263.36,95.78l5.82,8.96h-3.33l-4.98-7.82,2.49-1.14Z"/>
    <path class="st5" d="M290.68,86.87v17.87h-2.68v-10.34l.22-4.93h-.03l-5.44,15.27h-2.41l-5.44-15.27h-.03l.22,4.93v10.34h-2.68v-17.87h4.3l3.6,10.34,1.25,4.25h.05l1.27-4.25,3.57-10.34h4.22Z"/>
    <path class="st5" d="M317.7,89.36h-10.02v5.2h7.85v2.49h-7.85v7.69h-2.9v-17.87h12.91v2.49Z"/>
    <path class="st5" d="M328.04,86.6c1.73,0,3.23.37,4.49,1.11,1.26.74,2.24,1.8,2.92,3.17.69,1.37,1.03,3.01,1.03,4.93s-.34,3.56-1.03,4.93c-.69,1.37-1.66,2.43-2.92,3.17-1.26.74-2.76,1.11-4.49,1.11s-3.2-.37-4.47-1.11c-1.26-.74-2.24-1.8-2.92-3.17-.69-1.37-1.03-3.01-1.03-4.93s.34-3.56,1.03-4.93c.69-1.37,1.66-2.43,2.92-3.17,1.26-.74,2.75-1.11,4.47-1.11ZM328.04,89.11c-1.12,0-2.08.26-2.88.79-.8.52-1.42,1.28-1.85,2.27-.43.99-.65,2.2-.65,3.63s.22,2.61.65,3.61c.43,1,1.05,1.76,1.85,2.29.8.52,1.76.78,2.88.78s2.11-.26,2.91-.78c.8-.52,1.42-1.29,1.85-2.29.43-1,.65-2.21.65-3.61s-.22-2.64-.65-3.63c-.43-.99-1.05-1.75-1.85-2.27-.8-.52-1.77-.79-2.91-.79Z"/>
    <path class="st5" d="M347.79,86.87c1.91,0,3.43.48,4.56,1.44,1.13.96,1.69,2.25,1.69,3.87s-.56,2.97-1.69,3.88c-1.13.91-2.65,1.37-4.56,1.37l-.27.16h-4.14v7.15h-2.87v-17.87h7.28ZM347.57,95.18c1.17,0,2.04-.24,2.61-.72.57-.48.85-1.21.85-2.21s-.28-1.71-.85-2.19c-.57-.49-1.44-.73-2.61-.73h-4.2v5.85h4.2ZM349.28,95.78l5.82,8.96h-3.33l-4.98-7.82,2.49-1.14Z"/>
    <path class="st5" d="M382.34,104.74h-3.06l-1.71-4.68h-7.5l-1.71,4.68h-2.98l6.74-17.87h3.47l6.74,17.87ZM370.88,97.7h5.88l-2.92-8.34-2.95,8.34Z"/>
    <path class="st5" d="M388.24,102.25h9.85v2.49h-12.75v-17.87h2.9v15.38Z"/>
    <path class="st5" d="M404.15,102.25h9.85v2.49h-12.75v-17.87h2.9v15.38Z"/>
  </g>
  <path class="st6" d="M98.56,46.15c-2.86,0-4.94-.54-6.23-1.61-1.29-1.07-1.94-2.77-1.94-5.08s.65-4.09,1.94-5.16c1.29-1.07,3.37-1.61,6.23-1.61s4.87.54,6.19,1.61,1.98,2.79,1.98,5.16-.66,4-1.98,5.08c-1.32,1.07-3.38,1.61-6.19,1.61Z"/>
  <g>
    <g>
      <path class="st2" d="M289.82,64.53c-3.67,0-6.22-1.1-7.66-3.31-1.44-2.21-1.73-5.09-.88-8.65l10.84-46.81h6.38l-10.92,47.05c-.53,2.18-.37,3.75.48,4.71.85.96,2.31,1.44,4.39,1.44.8,0,1.49-.03,2.07-.08s1.14-.13,1.67-.24l-1.59,5.1c-.85.32-1.62.53-2.31.64-.69.1-1.52.16-2.47.16Z"/>
      <path class="st2" d="M319.18,24.1l-9.25,39.87h-6.38l9.25-39.87h6.38ZM318.46,16.44c-1.28,0-2.31-.38-3.11-1.16-.8-.77-1.19-1.77-1.19-2.99,0-1.65.49-2.96,1.47-3.95.98-.98,2.17-1.47,3.55-1.47,1.28,0,2.31.39,3.11,1.16.8.77,1.2,1.77,1.2,2.99,0,1.65-.49,2.96-1.47,3.95s-2.17,1.47-3.55,1.47Z"/>
      <path class="st2" d="M323.87,63.97l9.25-39.87h5.58l-1.52,8.93-.8-.4c1.06-3.14,3-5.48,5.82-7.02,2.82-1.54,5.85-2.31,9.09-2.31s5.69.67,7.81,2c2.13,1.33,3.63,3.23,4.51,5.7.88,2.47.92,5.46.12,8.97l-5.58,24h-6.38l5.58-24.08c.8-3.46.46-6.15-1-8.09-1.46-1.94-3.76-2.91-6.9-2.91-2.45,0-4.61.55-6.5,1.64-1.89,1.09-3.48,2.67-4.78,4.75-1.3,2.07-2.33,4.65-3.07,7.73l-4.86,20.97h-6.38Z"/>
      <path class="st2" d="M391.03,5.75l-13.48,58.22h-6.38l13.48-58.22h6.38ZM414,24.1l-20.81,17.31-1.36.88-15.47,12.92,1.19-8.14,27.51-22.97h8.93ZM394.38,38.05l11.32,25.92h-6.94l-9.57-22.49,5.18-3.43Z"/>
    </g>
    <path class="st2" d="M265.12,64.05c-1.28,0-2.31-.38-3.11-1.16-.8-.77-1.19-1.77-1.19-2.99,0-1.65.49-2.96,1.47-3.95.98-.98,2.17-1.47,3.55-1.47,1.28,0,2.31.39,3.11,1.16.8.77,1.2,1.77,1.2,2.99,0,1.65-.49,2.96-1.47,3.95s-2.17,1.47-3.55,1.47Z"/>
  </g>
  <path class="st4" d="M2692.32,721.7v72.55h-20.99l-22.53-39.24-5.5-10.77h-.11l.44,13.41v36.6h-16.71v-72.55h20.99l22.53,39.24,5.5,10.77h.11l-.44-13.41v-36.6h16.71Z"/>
  <path class="st4" d="M2764.48,736.32h-37.48v15.39h0v14.62h0v27.92h-18.91v-72.55h56.39v14.62Z"/>
  <path class="st4" d="M2837.87,721.7v14.62h-23.63v57.93h-18.91v-57.93h-23.74v-14.62h66.28Z"/>
  <path class="st2" d="M2856.48,732.91c-3.81,0-6.58-.71-8.3-2.14-1.72-1.43-2.58-3.68-2.58-6.76s.86-5.44,2.58-6.87c1.72-1.43,4.49-2.14,8.3-2.14s6.49.71,8.24,2.14,2.64,3.72,2.64,6.87-.88,5.33-2.64,6.76c-1.76,1.43-4.51,2.14-8.24,2.14ZM2865.82,739.29v54.96h-18.69v-54.96h18.69Z"/>
  <path class="st2" d="M2898.61,795.35c-4.54,0-8.52-1.12-11.93-3.35-3.41-2.23-6.05-5.48-7.91-9.73-1.87-4.25-2.8-9.34-2.8-15.28s.97-11.36,2.91-15.61c1.94-4.25,4.65-7.51,8.13-9.78,3.48-2.27,7.49-3.41,12.04-3.41,4.98,0,8.99,1.52,12.03,4.56,3.04,3.04,5,6.91,5.88,11.6l-1.76,2.31v-40.67h18.69v78.26h-16.71l-1.21-18.69,2.2,1.65c-.44,3.66-1.56,6.85-3.35,9.56-1.8,2.71-4.07,4.82-6.81,6.32-2.75,1.5-5.88,2.25-9.4,2.25ZM2905.1,781.61c2.12,0,3.94-.57,5.44-1.7,1.5-1.13,2.65-2.84,3.46-5.11.81-2.27,1.21-5.06,1.21-8.35,0-3.08-.38-5.7-1.15-7.86s-1.91-3.81-3.41-4.95-3.32-1.7-5.44-1.7c-3.23,0-5.77,1.19-7.64,3.57-1.87,2.38-2.8,6.14-2.8,11.27s.92,8.89,2.75,11.27c1.83,2.38,4.36,3.57,7.59,3.57Z"/>
  <text class="st0" transform="translate(2970.72 199.63)"><tspan x="0" y="0">01</tspan></text>
  <text class="st3" transform="translate(1539.72 199.63)"><tspan x="0" y="0">Guideline</tspan></text>
  <text class="st0" transform="translate(2539.72 199.63)"><tspan x="0" y="0">Version 1.0</tspan></text>
  <g>
    <path class="st5" d="M2023.62,823.77c2.22,0,4.14.47,5.76,1.42,1.62.95,2.87,2.3,3.75,4.06.88,1.76,1.32,3.86,1.32,6.31s-.44,4.55-1.32,6.31c-.88,1.76-2.13,3.11-3.75,4.06-1.62.95-3.54,1.42-5.76,1.42s-4.1-.47-5.72-1.42c-1.62-.95-2.87-2.3-3.75-4.06-.88-1.76-1.32-3.86-1.32-6.31s.44-4.55,1.32-6.31c.88-1.76,2.13-3.11,3.75-4.06,1.62-.95,3.52-1.42,5.72-1.42ZM2023.62,826.99c-1.43,0-2.66.34-3.69,1.01-1.03.67-1.82,1.64-2.38,2.91-.56,1.27-.83,2.82-.83,4.65s.28,3.35.83,4.63c.55,1.28,1.35,2.26,2.38,2.93,1.03.67,2.26,1.01,3.69,1.01s2.7-.33,3.73-1.01c1.03-.67,1.82-1.65,2.38-2.93.55-1.28.83-2.83.83-4.63s-.28-3.38-.83-4.65c-.55-1.27-1.35-2.24-2.38-2.91-1.03-.67-2.27-1.01-3.73-1.01Z"/>
    <path class="st5" d="M2048.4,824.11c1.64,0,3.06.29,4.25.87,1.19.58,2.12,1.4,2.79,2.46.67,1.06,1.01,2.35,1.01,3.85s-.34,2.76-1.01,3.83-1.6,1.9-2.79,2.48c-1.19.58-2.61.87-4.25.87h-5.1v8.53h-3.71v-22.89h8.81ZM2047.81,835.28c1.64,0,2.85-.34,3.62-1.02.77-.68,1.16-1.67,1.16-2.96s-.39-2.32-1.16-3c-.77-.68-1.98-1.02-3.62-1.02h-4.51v8.01h4.51Z"/>
    <path class="st5" d="M2060.72,847v-22.89h16.57v3.19h-12.86v6.59h10.06v3.12h-10.06v6.8h13.35v3.19h-17.06Z"/>
    <path class="st5" d="M2100.85,824.11v22.89h-4.4l-8.84-14.42-2.22-4.06h-.03l.14,3.71v14.77h-3.4v-22.89h4.37l8.81,14.39,2.25,4.13h.03l-.14-3.74v-14.77h3.43Z"/>
    <path class="st5" d="M2137.64,824.11v22.89h-4.4l-8.84-14.42-2.22-4.06h-.03l.14,3.71v14.77h-3.4v-22.89h4.37l8.81,14.39,2.25,4.13h.03l-.14-3.74v-14.77h3.43Z"/>
    <path class="st5" d="M2160.48,827.3h-12.83v6.66h10.06v3.19h-10.06v9.85h-3.71v-22.89h16.54v3.19Z"/>
    <path class="st5" d="M2182.88,824.11v3.19h-7.84v19.7h-3.71v-19.7h-7.84v-3.19h19.38Z"/>
    <path class="st5" d="M2207.39,824.11c1.64,0,3.06.29,4.25.87,1.19.58,2.12,1.4,2.79,2.46.67,1.06,1.01,2.35,1.01,3.85s-.34,2.76-1.01,3.83-1.6,1.9-2.79,2.48c-1.19.58-2.61.87-4.25.87h-5.1v8.53h-3.71v-22.89h8.81ZM2206.8,835.28c1.64,0,2.85-.34,3.62-1.02.77-.68,1.16-1.67,1.16-2.96s-.39-2.32-1.16-3c-.77-.68-1.98-1.02-3.62-1.02h-4.51v8.01h4.51Z"/>
    <path class="st5" d="M2223.41,843.81h12.62v3.19h-16.33v-22.89h3.71v19.7Z"/>
    <path class="st5" d="M2260.47,847h-3.92l-2.18-6h-9.6l-2.18,6h-3.81l8.63-22.89h4.44l8.63,22.89ZM2245.81,837.98h7.52l-3.75-10.68-3.78,10.68Z"/>
    <path class="st5" d="M2278.85,824.11v3.19h-7.84v19.7h-3.71v-19.7h-7.84v-3.19h19.38Z"/>
    <path class="st5" d="M2299.44,827.3h-12.83v6.66h10.06v3.19h-10.06v9.85h-3.71v-22.89h16.54v3.19Z"/>
    <path class="st5" d="M2312.68,823.77c2.22,0,4.14.47,5.76,1.42,1.62.95,2.87,2.3,3.75,4.06.88,1.76,1.32,3.86,1.32,6.31s-.44,4.55-1.32,6.31c-.88,1.76-2.13,3.11-3.75,4.06-1.62.95-3.54,1.42-5.76,1.42s-4.1-.47-5.72-1.42c-1.62-.95-2.87-2.3-3.75-4.06-.88-1.76-1.32-3.86-1.32-6.31s.44-4.55,1.32-6.31c.88-1.76,2.13-3.11,3.75-4.06,1.62-.95,3.52-1.42,5.72-1.42ZM2312.68,826.99c-1.43,0-2.66.34-3.69,1.01-1.03.67-1.82,1.64-2.38,2.91-.56,1.27-.83,2.82-.83,4.65s.28,3.35.83,4.63c.55,1.28,1.35,2.26,2.38,2.93,1.03.67,2.26,1.01,3.69,1.01s2.7-.33,3.73-1.01c1.03-.67,1.82-1.65,2.38-2.93.55-1.28.83-2.83.83-4.63s-.28-3.38-.83-4.65c-.55-1.27-1.35-2.24-2.38-2.91-1.03-.67-2.27-1.01-3.73-1.01Z"/>
    <path class="st5" d="M2337.98,824.11c2.45,0,4.4.61,5.84,1.84,1.44,1.23,2.17,2.88,2.17,4.96s-.72,3.81-2.17,4.98c-1.45,1.17-3.39,1.75-5.84,1.75l-.35.21h-5.31v9.15h-3.68v-22.89h9.33ZM2337.71,834.76c1.5,0,2.62-.31,3.35-.92.73-.61,1.09-1.55,1.09-2.83s-.36-2.18-1.09-2.81c-.73-.62-1.84-.94-3.35-.94h-5.37v7.49h5.37ZM2339.89,835.52l7.45,11.48h-4.26l-6.38-10.02,3.19-1.46Z"/>
    <path class="st5" d="M2374.87,824.11v22.89h-3.43v-13.25l.28-6.31h-.03l-6.97,19.56h-3.09l-6.97-19.56h-.04l.28,6.31v13.25h-3.43v-22.89h5.51l4.61,13.25,1.6,5.44h.07l1.63-5.44,4.58-13.25h5.41Z"/>
    <path class="st5" d="M2409.48,827.3h-12.83v6.66h10.06v3.19h-10.06v9.85h-3.71v-22.89h16.54v3.19Z"/>
    <path class="st5" d="M2422.72,823.77c2.22,0,4.14.47,5.76,1.42,1.62.95,2.87,2.3,3.75,4.06.88,1.76,1.32,3.86,1.32,6.31s-.44,4.55-1.32,6.31c-.88,1.76-2.13,3.11-3.75,4.06-1.62.95-3.54,1.42-5.76,1.42s-4.1-.47-5.72-1.42c-1.62-.95-2.87-2.3-3.75-4.06-.88-1.76-1.32-3.86-1.32-6.31s.44-4.55,1.32-6.31c.88-1.76,2.13-3.11,3.75-4.06,1.62-.95,3.52-1.42,5.72-1.42ZM2422.72,826.99c-1.43,0-2.66.34-3.69,1.01-1.03.67-1.82,1.64-2.38,2.91-.56,1.27-.83,2.82-.83,4.65s.28,3.35.83,4.63c.55,1.28,1.35,2.26,2.38,2.93,1.03.67,2.26,1.01,3.69,1.01s2.7-.33,3.73-1.01c1.03-.67,1.82-1.65,2.38-2.93.55-1.28.83-2.83.83-4.63s-.28-3.38-.83-4.65c-.55-1.27-1.35-2.24-2.38-2.91-1.03-.67-2.27-1.01-3.73-1.01Z"/>
    <path class="st5" d="M2448.02,824.11c2.45,0,4.4.61,5.84,1.84,1.44,1.23,2.17,2.88,2.17,4.96s-.72,3.81-2.17,4.98c-1.45,1.17-3.39,1.75-5.84,1.75l-.35.21h-5.31v9.15h-3.68v-22.89h9.33ZM2447.74,834.76c1.5,0,2.62-.31,3.35-.92.73-.61,1.09-1.55,1.09-2.83s-.36-2.18-1.09-2.81c-.73-.62-1.84-.94-3.35-.94h-5.37v7.49h5.37ZM2449.93,835.52l7.45,11.48h-4.26l-6.38-10.02,3.19-1.46Z"/>
    <path class="st5" d="M2492.26,847h-3.92l-2.18-6h-9.6l-2.18,6h-3.81l8.63-22.89h4.44l8.63,22.89ZM2477.6,837.98h7.52l-3.75-10.68-3.78,10.68Z"/>
    <path class="st5" d="M2499.83,843.81h12.62v3.19h-16.33v-22.89h3.71v19.7Z"/>
    <path class="st5" d="M2520.19,843.81h12.62v3.19h-16.33v-22.89h3.71v19.7Z"/>
  </g>
  <g>
    <path class="st5" d="M2637.7,823.77c2.22,0,4.14.47,5.76,1.42,1.62.95,2.87,2.3,3.75,4.06.88,1.76,1.32,3.86,1.32,6.31s-.44,4.55-1.32,6.31c-.88,1.76-2.13,3.11-3.75,4.06-1.62.95-3.54,1.42-5.76,1.42s-4.1-.47-5.72-1.42c-1.62-.95-2.87-2.3-3.75-4.06-.88-1.76-1.32-3.86-1.32-6.31s.44-4.55,1.32-6.31c.88-1.76,2.13-3.11,3.75-4.06,1.62-.95,3.52-1.42,5.72-1.42ZM2637.7,826.99c-1.43,0-2.66.34-3.69,1.01-1.03.67-1.82,1.64-2.38,2.91-.56,1.27-.83,2.82-.83,4.65s.28,3.35.83,4.63c.55,1.28,1.35,2.26,2.38,2.93,1.03.67,2.26,1.01,3.69,1.01s2.7-.33,3.73-1.01c1.03-.67,1.82-1.65,2.38-2.93.55-1.28.83-2.83.83-4.63s-.28-3.38-.83-4.65c-.55-1.27-1.35-2.24-2.38-2.91-1.03-.67-2.27-1.01-3.73-1.01Z"/>
    <path class="st5" d="M2662.48,824.11c1.64,0,3.06.29,4.25.87,1.19.58,2.12,1.4,2.79,2.46.67,1.06,1.01,2.35,1.01,3.85s-.34,2.76-1.01,3.83-1.6,1.9-2.79,2.48c-1.19.58-2.61.87-4.25.87h-5.1v8.53h-3.71v-22.89h8.81ZM2661.89,835.28c1.64,0,2.85-.34,3.62-1.02.77-.68,1.16-1.67,1.16-2.96s-.39-2.32-1.16-3c-.77-.68-1.98-1.02-3.62-1.02h-4.51v8.01h4.51Z"/>
    <path class="st5" d="M2674.79,847v-22.89h16.57v3.19h-12.86v6.59h10.06v3.12h-10.06v6.8h13.35v3.19h-17.06Z"/>
    <path class="st5" d="M2714.93,824.11v22.89h-4.4l-8.84-14.42-2.22-4.06h-.03l.14,3.71v14.77h-3.4v-22.89h4.37l8.81,14.39,2.25,4.13h.03l-.14-3.74v-14.77h3.43Z"/>
    <path class="st5" d="M2751.72,824.11v22.89h-4.4l-8.84-14.42-2.22-4.06h-.03l.14,3.71v14.77h-3.4v-22.89h4.37l8.81,14.39,2.25,4.13h.03l-.14-3.74v-14.77h3.43Z"/>
    <path class="st5" d="M2774.55,827.3h-12.83v6.66h10.06v3.19h-10.06v9.85h-3.71v-22.89h16.54v3.19Z"/>
    <path class="st5" d="M2796.95,824.11v3.19h-7.84v19.7h-3.71v-19.7h-7.84v-3.19h19.38Z"/>
    <path class="st5" d="M2821.47,824.11c1.64,0,3.06.29,4.25.87,1.19.58,2.12,1.4,2.79,2.46.67,1.06,1.01,2.35,1.01,3.85s-.34,2.76-1.01,3.83-1.6,1.9-2.79,2.48c-1.19.58-2.61.87-4.25.87h-5.1v8.53h-3.71v-22.89h8.81ZM2820.88,835.28c1.64,0,2.85-.34,3.62-1.02.77-.68,1.16-1.67,1.16-2.96s-.39-2.32-1.16-3c-.77-.68-1.98-1.02-3.62-1.02h-4.51v8.01h4.51Z"/>
    <path class="st5" d="M2837.49,843.81h12.62v3.19h-16.33v-22.89h3.71v19.7Z"/>
    <path class="st5" d="M2874.55,847h-3.92l-2.18-6h-9.6l-2.18,6h-3.81l8.63-22.89h4.44l8.63,22.89ZM2859.88,837.98h7.52l-3.75-10.68-3.78,10.68Z"/>
    <path class="st5" d="M2892.92,824.11v3.19h-7.84v19.7h-3.71v-19.7h-7.84v-3.19h19.38Z"/>
    <path class="st5" d="M2913.52,827.3h-12.83v6.66h10.06v3.19h-10.06v9.85h-3.71v-22.89h16.54v3.19Z"/>
    <path class="st5" d="M2926.76,823.77c2.22,0,4.14.47,5.76,1.42,1.62.95,2.87,2.3,3.75,4.06.88,1.76,1.32,3.86,1.32,6.31s-.44,4.55-1.32,6.31c-.88,1.76-2.13,3.11-3.75,4.06-1.62.95-3.54,1.42-5.76,1.42s-4.1-.47-5.72-1.42c-1.62-.95-2.87-2.3-3.75-4.06-.88-1.76-1.32-3.86-1.32-6.31s.44-4.55,1.32-6.31c.88-1.76,2.13-3.11,3.75-4.06,1.62-.95,3.52-1.42,5.72-1.42ZM2926.76,826.99c-1.43,0-2.66.34-3.69,1.01-1.03.67-1.82,1.64-2.38,2.91-.56,1.27-.83,2.82-.83,4.65s.28,3.35.83,4.63c.55,1.28,1.35,2.26,2.38,2.93,1.03.67,2.26,1.01,3.69,1.01s2.7-.33,3.73-1.01c1.03-.67,1.82-1.65,2.38-2.93.55-1.28.83-2.83.83-4.63s-.28-3.38-.83-4.65c-.55-1.27-1.35-2.24-2.38-2.91-1.03-.67-2.27-1.01-3.73-1.01Z"/>
    <path class="st5" d="M2952.06,824.11c2.45,0,4.4.61,5.84,1.84,1.44,1.23,2.17,2.88,2.17,4.96s-.72,3.81-2.17,4.98c-1.45,1.17-3.39,1.75-5.84,1.75l-.35.21h-5.31v9.15h-3.68v-22.89h9.33ZM2951.78,834.76c1.5,0,2.62-.31,3.35-.92.73-.61,1.09-1.55,1.09-2.83s-.36-2.18-1.09-2.81c-.73-.62-1.84-.94-3.35-.94h-5.37v7.49h5.37ZM2953.97,835.52l7.45,11.48h-4.26l-6.38-10.02,3.19-1.46Z"/>
    <path class="st5" d="M2988.95,824.11v22.89h-3.43v-13.25l.28-6.31h-.03l-6.97,19.56h-3.09l-6.97-19.56h-.04l.28,6.31v13.25h-3.43v-22.89h5.51l4.61,13.25,1.6,5.44h.07l1.63-5.44,4.58-13.25h5.41Z"/>
    <path class="st5" d="M3023.55,827.3h-12.83v6.66h10.06v3.19h-10.06v9.85h-3.71v-22.89h16.54v3.19Z"/>
    <path class="st5" d="M3036.79,823.77c2.22,0,4.14.47,5.76,1.42,1.62.95,2.87,2.3,3.75,4.06.88,1.76,1.32,3.86,1.32,6.31s-.44,4.55-1.32,6.31c-.88,1.76-2.13,3.11-3.75,4.06-1.62.95-3.54,1.42-5.76,1.42s-4.1-.47-5.72-1.42c-1.62-.95-2.87-2.3-3.75-4.06-.88-1.76-1.32-3.86-1.32-6.31s.44-4.55,1.32-6.31c.88-1.76,2.13-3.11,3.75-4.06,1.62-.95,3.52-1.42,5.72-1.42ZM3036.79,826.99c-1.43,0-2.66.34-3.69,1.01-1.03.67-1.82,1.64-2.38,2.91-.56,1.27-.83,2.82-.83,4.65s.28,3.35.83,4.63c.55,1.28,1.35,2.26,2.38,2.93,1.03.67,2.26,1.01,3.69,1.01s2.7-.33,3.73-1.01c1.03-.67,1.82-1.65,2.38-2.93.55-1.28.83-2.83.83-4.63s-.28-3.38-.83-4.65c-.55-1.27-1.35-2.24-2.38-2.91-1.03-.67-2.27-1.01-3.73-1.01Z"/>
    <path class="st5" d="M3062.09,824.11c2.45,0,4.4.61,5.84,1.84,1.44,1.23,2.17,2.88,2.17,4.96s-.72,3.81-2.17,4.98c-1.45,1.17-3.39,1.75-5.84,1.75l-.35.21h-5.31v9.15h-3.68v-22.89h9.33ZM3061.82,834.76c1.5,0,2.62-.31,3.35-.92.73-.61,1.09-1.55,1.09-2.83s-.36-2.18-1.09-2.81c-.73-.62-1.84-.94-3.35-.94h-5.37v7.49h5.37ZM3064,835.52l7.45,11.48h-4.26l-6.38-10.02,3.19-1.46Z"/>
    <path class="st5" d="M3106.34,847h-3.92l-2.18-6h-9.6l-2.18,6h-3.81l8.63-22.89h4.44l8.63,22.89ZM3091.67,837.98h7.52l-3.75-10.68-3.78,10.68Z"/>
    <path class="st5" d="M3113.9,843.81h12.62v3.19h-16.33v-22.89h3.71v19.7Z"/>
    <path class="st5" d="M3134.27,843.81h12.62v3.19h-16.33v-22.89h3.71v19.7Z"/>
  </g>
  <text class="st1" transform="translate(1539.72 219.63)"><tspan x="0" y="0">Logo</tspan></text>
  <line class="st7" x1="1540" y1="242" x2="3189" y2="242"/>
  <path class="st4" d="M2747.48,769.78c-3.81,0-6.58-.71-8.3-2.14-1.72-1.43-2.58-3.68-2.58-6.76s.86-5.44,2.58-6.87c1.72-1.43,4.49-2.14,8.3-2.14s6.49.71,8.24,2.14,2.64,3.72,2.64,6.87-.88,5.33-2.64,6.76c-1.76,1.43-4.51,2.14-8.24,2.14Z"/>
  <g>
    <g>
      <path class="st2" d="M2994.14,794.25c-4.88,0-8.28-1.47-10.19-4.4-1.91-2.94-2.3-6.78-1.17-11.52l14.44-62.32h8.5l-14.54,62.64c-.71,2.9-.5,4.99.64,6.27,1.13,1.27,3.08,1.91,5.84,1.91,1.06,0,1.98-.04,2.76-.11s1.52-.17,2.23-.32l-2.12,6.79c-1.13.42-2.16.71-3.08.85-.92.14-2.02.21-3.29.21Z"/>
      <path class="st2" d="M3033.21,740.42l-12.32,53.09h-8.49l12.32-53.09h8.49ZM3032.26,730.23c-1.7,0-3.08-.51-4.14-1.54-1.06-1.02-1.59-2.35-1.59-3.98,0-2.19.65-3.94,1.96-5.26,1.31-1.31,2.88-1.96,4.72-1.96,1.7,0,3.08.52,4.14,1.54,1.06,1.03,1.59,2.36,1.59,3.98,0,2.19-.65,3.95-1.96,5.26s-2.89,1.96-4.73,1.96Z"/>
      <path class="st2" d="M3039.46,793.51l12.32-53.09h7.43l-2.02,11.89-1.06-.53c1.42-4.18,4-7.29,7.75-9.34,3.75-2.05,7.79-3.08,12.1-3.08s7.57.89,10.4,2.66c2.83,1.77,4.83,4.3,6,7.59,1.17,3.29,1.22,7.27.16,11.95l-7.43,31.96h-8.49l7.43-32.06c1.06-4.6.62-8.19-1.33-10.78-1.95-2.58-5.01-3.88-9.19-3.88-3.26,0-6.14.73-8.65,2.18-2.51,1.45-4.64,3.56-6.37,6.32-1.74,2.76-3.1,6.19-4.09,10.3l-6.48,27.92h-8.49Z"/>
      <path class="st2" d="M3128.88,716l-17.94,77.51h-8.49l17.94-77.51h8.49ZM3159.46,740.42l-27.71,23.04-1.8,1.17-20.6,17.2,1.59-10.83,36.63-30.58h11.89ZM3133.34,759l15.08,34.51h-9.23l-12.74-29.94,6.9-4.57Z"/>
    </g>
    <path class="st2" d="M2961.25,793.62c-1.7,0-3.08-.51-4.14-1.54-1.06-1.02-1.59-2.35-1.59-3.98,0-2.19.65-3.94,1.96-5.26,1.31-1.31,2.88-1.96,4.72-1.96,1.7,0,3.08.52,4.14,1.54,1.06,1.03,1.59,2.36,1.59,3.98,0,2.19-.65,3.95-1.96,5.26s-2.89,1.96-4.73,1.96Z"/>
  </g>
  <path class="st4" d="M2367,634.82v-58.13c0-8.11-6.57-14.68-14.68-14.68h-326.63c-8.11,0-14.68,6.57-14.68,14.68v115.63c0,8.11,6.57,14.68,14.68,14.68h235.13c8.11,0,14.68,6.57,14.68,14.68v58.13c0,8.11,6.57,14.68,14.68,14.68h228.63c8.11,0,14.68-6.57,14.68-14.68v-115.63c0-8.11-6.57-14.68-14.68-14.68h-137.13c-8.11,0-14.68-6.57-14.68-14.68Z"/>
  <g>
    <path class="st6" d="M2109.9,600.07v66.87h-19.35l-20.77-36.17-5.07-9.93h-.1l.41,12.36v33.74h-15.4v-66.87h19.35l20.77,36.17,5.07,9.93h.1l-.41-12.36v-33.74h15.4Z"/>
    <path class="st6" d="M2175.18,613.54h-34.55v14.18h27.56v13.48h-27.56v25.73h-17.43v-66.87h51.98v13.48Z"/>
    <path class="st6" d="M2241.7,600.07v13.48h-21.78v53.39h-17.43v-53.39h-21.88v-13.48h61.09Z"/>
    <path class="st6" d="M2257.68,610.4c-3.51,0-6.06-.66-7.65-1.98-1.59-1.32-2.38-3.39-2.38-6.23s.79-5.02,2.38-6.33c1.59-1.32,4.14-1.98,7.65-1.98s5.98.66,7.6,1.98c1.62,1.32,2.43,3.43,2.43,6.33s-.81,4.91-2.43,6.23-4.15,1.98-7.6,1.98ZM2266.29,616.28v50.66h-17.22v-50.66h17.22Z"/>
    <path class="st6" d="M2295.38,667.95c-4.19,0-7.85-1.03-10.99-3.09-3.14-2.06-5.57-5.05-7.29-8.97-1.72-3.92-2.58-8.61-2.58-14.08s.89-10.47,2.69-14.39c1.79-3.92,4.29-6.92,7.5-9.02,3.21-2.09,6.91-3.14,11.09-3.14,4.59,0,8.29,1.4,11.09,4.2,2.8,2.8,4.61,6.37,5.42,10.69l-1.62,2.13v-37.49h17.22v72.14h-15.4l-1.11-17.22,2.03,1.52c-.41,3.38-1.44,6.32-3.09,8.81-1.66,2.5-3.75,4.44-6.28,5.83-2.53,1.38-5.42,2.08-8.66,2.08ZM2301.36,655.29c1.96,0,3.63-.52,5.02-1.57,1.38-1.05,2.45-2.62,3.19-4.71.74-2.09,1.11-4.66,1.11-7.7,0-2.84-.35-5.25-1.06-7.24-.71-1.99-1.76-3.51-3.14-4.56-1.38-1.05-3.06-1.57-5.02-1.57-2.97,0-5.32,1.1-7.04,3.29-1.72,2.2-2.58,5.66-2.58,10.38s.84,8.19,2.53,10.38c1.69,2.2,4.02,3.29,6.99,3.29Z"/>
  </g>
  <g>
    <g>
      <path class="st2" d="M2348.14,760.25c-4.88,0-8.28-1.47-10.19-4.4-1.91-2.94-2.3-6.78-1.17-11.52l14.44-62.32h8.5l-14.54,62.64c-.71,2.9-.5,4.99.64,6.27,1.13,1.27,3.08,1.91,5.84,1.91,1.06,0,1.98-.04,2.76-.11s1.52-.17,2.23-.32l-2.12,6.79c-1.13.42-2.16.71-3.08.85-.92.14-2.02.21-3.29.21Z"/>
      <path class="st2" d="M2387.21,706.42l-12.32,53.09h-8.49l12.32-53.09h8.49ZM2386.26,696.23c-1.7,0-3.08-.51-4.14-1.54-1.06-1.02-1.59-2.35-1.59-3.98,0-2.19.65-3.94,1.96-5.26,1.31-1.31,2.88-1.96,4.72-1.96,1.7,0,3.08.52,4.14,1.54,1.06,1.03,1.59,2.36,1.59,3.98,0,2.19-.65,3.95-1.96,5.26s-2.89,1.96-4.73,1.96Z"/>
      <path class="st2" d="M2393.46,759.51l12.32-53.09h7.43l-2.02,11.89-1.06-.53c1.42-4.18,4-7.29,7.75-9.34,3.75-2.05,7.79-3.08,12.1-3.08s7.57.89,10.4,2.66,4.83,4.3,6,7.59c1.17,3.29,1.22,7.27.16,11.95l-7.43,31.96h-8.49l7.43-32.06c1.06-4.6.62-8.19-1.33-10.78-1.95-2.58-5.01-3.88-9.19-3.88-3.26,0-6.14.73-8.65,2.18-2.51,1.45-4.64,3.56-6.37,6.32-1.74,2.76-3.1,6.19-4.09,10.3l-6.48,27.92h-8.49Z"/>
      <path class="st2" d="M2482.88,682l-17.94,77.51h-8.49l17.94-77.51h8.49ZM2513.46,706.42l-27.71,23.04-1.8,1.17-20.6,17.2,1.59-10.83,36.63-30.58h11.89ZM2487.34,725l15.08,34.51h-9.23l-12.74-29.94,6.9-4.57Z"/>
    </g>
    <path class="st2" d="M2315.25,759.62c-1.7,0-3.08-.51-4.14-1.54-1.06-1.02-1.59-2.35-1.59-3.98,0-2.19.65-3.94,1.96-5.26,1.31-1.31,2.88-1.96,4.72-1.96,1.7,0,3.08.52,4.14,1.54,1.06,1.03,1.59,2.36,1.59,3.98,0,2.19-.65,3.95-1.96,5.26s-2.89,1.96-4.73,1.96Z"/>
  </g>
</svg>